<?xml version="1.0" encoding="UTF-8" standalone="no"?>
<svg width="360px" height="360px" viewBox="0 0 360 360" version="1.1" xmlns="http://www.w3.org/2000/svg" xmlns:xlink="http://www.w3.org/1999/xlink" xmlns:sketch="http://www.bohemiancoding.com/sketch/ns">
    <!-- Generator: Sketch 3.3.3 (12081) - http://www.bohemiancoding.com/sketch -->
    <title>v3.3 copy</title>
    <desc>Created with Sketch.</desc>
    <defs>
        <filter x="-50%" y="-50%" width="200%" height="200%" filterUnits="objectBoundingBox" id="filter-1">
            <feOffset dx="0" dy="1" in="SourceAlpha" result="shadowOffsetOuter1"></feOffset>
            <feGaussianBlur stdDeviation="2" in="shadowOffsetOuter1" result="shadowBlurOuter1"></feGaussianBlur>
            <feColorMatrix values="0 0 0 0 0   0 0 0 0 0   0 0 0 0 0  0 0 0 0.35 0" in="shadowBlurOuter1" type="matrix" result="shadowMatrixOuter1"></feColorMatrix>
            <feOffset dx="0" dy="2" in="SourceAlpha" result="shadowOffsetInner1"></feOffset>
            <feGaussianBlur stdDeviation="1.5" in="shadowOffsetInner1" result="shadowBlurInner1"></feGaussianBlur>
            <feComposite in="shadowBlurInner1" in2="SourceAlpha" operator="arithmetic" k2="-1" k3="1" result="shadowInnerInner1"></feComposite>
            <feColorMatrix values="0 0 0 0 1   0 0 0 0 1   0 0 0 0 1  0 0 0 0.35 0" in="shadowInnerInner1" type="matrix" result="shadowMatrixInner1"></feColorMatrix>
            <feMerge>
                <feMergeNode in="shadowMatrixOuter1"></feMergeNode>
                <feMergeNode in="SourceGraphic"></feMergeNode>
                <feMergeNode in="shadowMatrixInner1"></feMergeNode>
            </feMerge>
        </filter>
        <filter x="-50%" y="-50%" width="200%" height="200%" filterUnits="objectBoundingBox" id="filter-2">
            <feOffset dx="0" dy="2" in="SourceAlpha" result="shadowOffsetOuter1"></feOffset>
            <feGaussianBlur stdDeviation="2" in="shadowOffsetOuter1" result="shadowBlurOuter1"></feGaussianBlur>
            <feColorMatrix values="0 0 0 0 0   0 0 0 0 0   0 0 0 0 0  0 0 0 0.35 0" in="shadowBlurOuter1" type="matrix" result="shadowMatrixOuter1"></feColorMatrix>
            <feMerge>
                <feMergeNode in="shadowMatrixOuter1"></feMergeNode>
                <feMergeNode in="SourceGraphic"></feMergeNode>
            </feMerge>
        </filter>
        <circle id="path-3" cx="162.5" cy="162.5" r="162.5"></circle>
        <path d="M162.5,325 C252.246272,325 325,252.246272 325,162.5 C325,72.7537282 252.246272,0 162.5,0 C72.7537282,0 0,72.7537282 0,162.5 C0,252.246272 72.7537282,325 162.5,325 Z M162.857623,238.253351 C162.857623,238.253351 196.939378,220.872832 240.072697,220.872832 C283.206015,220.872832 310.00675,235.004597 310.00675,235.004597 C314.027946,236.798834 317.28777,241.837053 317.28777,246.260792 L317.28777,268.891742 C317.287769,273.31413 313.964606,275.58621 309.811047,274.054889 C309.811047,274.054889 278.330057,260.516463 240.072696,260.516463 C201.815334,260.516463 162.857622,276.899184 162.857622,276.899184 L162.857623,238.253351 Z M8.42747591,246.248194 C8.42747601,241.832764 11.6678304,236.733771 15.7333107,234.994408 C15.7333107,234.994408 42.5092312,220.872832 85.6425496,220.872832 C128.775868,220.872832 162.857623,238.253351 162.857623,238.253351 L162.857622,277.760413 C162.857622,277.760413 123.89991,261.377692 85.6425487,261.377692 C47.3851873,261.377692 15.891114,274.920792 15.891114,274.920792 C11.7690601,276.489071 8.42747528,274.184745 8.42747538,269.765569 L8.42747591,246.248194 Z" id="path-5"></path>
        <filter x="-50%" y="-50%" width="200%" height="200%" filterUnits="objectBoundingBox" id="filter-7">
            <feOffset dx="0" dy="2" in="SourceAlpha" result="shadowOffsetOuter1"></feOffset>
            <feGaussianBlur stdDeviation="2" in="shadowOffsetOuter1" result="shadowBlurOuter1"></feGaussianBlur>
            <feColorMatrix values="0 0 0 0 0   0 0 0 0 0   0 0 0 0 0  0 0 0 0.35 0" in="shadowBlurOuter1" type="matrix" result="shadowMatrixOuter1"></feColorMatrix>
            <feMerge>
                <feMergeNode in="shadowMatrixOuter1"></feMergeNode>
                <feMergeNode in="SourceGraphic"></feMergeNode>
            </feMerge>
        </filter>
        <linearGradient x1="4.04471005%" y1="2.43916032%" x2="95.8054796%" y2="96.7969328%" id="linearGradient-8">
            <stop stop-color="#FFFFFF" stop-opacity="0.2" offset="0%"></stop>
            <stop stop-color="#000000" stop-opacity="0" offset="100%"></stop>
        </linearGradient>
    </defs>
    <g id="Page-1" stroke="none" stroke-width="1" fill="none" fill-rule="evenodd" sketch:type="MSPage">
        <g id="v3.3-copy" sketch:type="MSArtboardGroup">
            <rect id="Color" fill="#8BC34A" filter="url(#filter-1)" sketch:type="MSShapeGroup" x="5" y="3" width="350" height="350" rx="30"></rect>
            <circle id="Border" fill-opacity="0.123188406" fill="#000000" sketch:type="MSShapeGroup" cx="180.5" cy="178.5" r="162.5"></circle>
            <path d="M180.430147,280.380518 C180.430147,280.380518 214.511902,263 257.645221,263 C300.778539,263 327.579273,277.131765 327.579273,277.131765 C331.60047,278.926002 334.860294,283.967857 334.860294,288.389414 L334.860294,302.111621 C334.860294,306.534812 331.537131,308.807543 327.383572,307.276222 C327.383572,307.276222 295.902582,293.737796 257.645221,293.737796 C219.387859,293.737796 180.430147,310.120517 180.430147,310.120517 L180.430147,280.380518 Z M26,288.389414 C26,283.966223 29.2403543,278.860939 33.3058346,277.121576 C33.3058346,277.121576 60.0817551,263 103.215074,263 C146.348392,263 180.430147,280.380518 180.430147,280.380518 L180.430147,310.120517 C180.430147,310.120517 141.472435,293.737796 103.215074,293.737796 C64.9577121,293.737796 33.4636388,307.280896 33.4636388,307.280896 C29.3415849,308.849175 26,306.533178 26,302.111621 L26,288.389414 Z" id="Book" fill="#FFFFFF" filter="url(#filter-2)" sketch:type="MSShapeGroup"></path>
            <g id="People" sketch:type="MSLayerGroup" transform="translate(18.000000, 16.000000)">
                <mask id="mask-4" sketch:name="Mask" fill="white">
                    <use xlink:href="#path-3"></use>
                </mask>
                <use id="Mask" sketch:type="MSShapeGroup" xlink:href="#path-3"></use>
                <g mask="url(#mask-4)">
                    <mask id="mask-6" sketch:name="Mask" fill="white">
                        <use xlink:href="#path-5"></use>
                    </mask>
                    <use id="Mask" fill-opacity="0" fill="#2F2F2F" sketch:type="MSShapeGroup" xlink:href="#path-5"></use>
                    <path d="M222.465184,200.569471 C189.069307,188.593498 191.198448,194.079385 191.198448,170.072766 C191.198448,154.04149 199.355427,163.359308 204.562009,132.917246 C206.586791,120.937195 208.206616,128.923895 212.603285,109.709514 C214.917322,99.6393262 211.041311,98.8869558 211.504118,94.0833605 C211.966925,89.2797651 212.429733,84.9970416 213.297496,75.1583523 C214.338813,63.0046774 203.057885,31 162.620098,31 C122.182311,31 110.901383,63.0046774 112.000551,75.216227 C112.868314,84.9970416 113.331122,89.3376398 113.793929,94.1412351 C114.256736,98.9448305 110.380725,99.6972008 112.694762,109.767389 C117.091431,128.923895 118.711256,120.937195 120.736038,132.97512 C125.94262,163.417182 134.099599,154.099365 134.099599,170.130641 C134.099599,194.158729 136.222594,188.724979 102.977336,200.580613 C102.598134,200.43955 102.214486,200.297652 101.826344,200.154912 C76.5907897,190.887428 78.1480469,195.401332 78.1480469,178.344367 C78.1480469,167.27931 83.778131,173.710624 87.3718016,152.699 C88.7693402,144.430167 89.8873711,149.942722 92.9220263,136.680632 C94.5192133,129.730019 91.8439251,129.21072 92.1633625,125.895198 C92.4827999,122.579675 92.8022373,119.623667 93.4011824,112.832838 C94.1199166,104.444167 86.3336301,82.3539992 58.422788,82.3539992 C30.5119458,82.3539992 22.7256594,104.444167 23.4843232,112.872784 C24.0832683,119.623667 24.4027057,122.619622 24.7221431,125.935144 C25.0415805,129.250666 22.3662923,129.769965 23.9634793,136.720579 C26.9981345,149.942722 28.1161654,144.430167 29.513704,152.738946 C33.1073746,173.750571 38.7374587,167.319256 38.7374587,178.384313 C38.7374587,195.481224 40.294716,190.96732 15.059162,200.194858 C-10.5756888,209.582181 -16.6449992,215.374359 -17.3238037,219.728479 C-18.2421862,225.201088 -18.2421862,235.746846 -18.2421862,235.746846 L52.2058658,235.746846 C51.5463486,243.669237 51.5463486,253.238628 51.5463486,253.238628 L162.620098,253.238628 L273.693847,253.238628 C273.693847,253.238628 273.693847,243.692234 273.065278,235.746846 L343.511567,235.746846 C343.511567,235.746846 343.511567,225.201088 342.633114,219.688533 C341.91438,215.334413 335.884999,209.582181 310.250148,200.154912 C285.014594,190.887428 286.571851,195.401332 286.571851,178.344367 C286.571851,167.27931 292.201935,173.710624 295.795606,152.699 C297.193145,144.430167 298.311176,149.942722 301.345831,136.680632 C302.943018,129.730019 300.26773,129.21072 300.587167,125.895198 C300.906604,122.579675 301.226042,119.623667 301.824987,112.832838 C302.543721,104.444167 294.757435,82.3539992 266.846592,82.3539992 C238.93575,82.3539992 231.149464,104.444167 231.908128,112.872784 C232.507073,119.623667 232.82651,122.619622 233.145948,125.935144 C233.465385,129.250666 230.790097,129.769965 232.387284,136.720579 C235.421939,149.942722 236.53997,144.430167 237.937508,152.738946 C241.531179,173.750571 247.161263,167.319256 247.161263,178.384313 C247.161263,195.481224 248.71852,190.96732 223.482966,200.194858 C223.140219,200.32037 222.80097,200.445239 222.465184,200.569471 Z" fill="#FFFFFF" filter="url(#filter-7)" sketch:type="MSShapeGroup" mask="url(#mask-6)"></path>
                </g>
            </g>
            <rect id="Finish" fill="url(#linearGradient-8)" sketch:type="MSShapeGroup" x="5" y="7" width="350" height="350" rx="30"></rect>
        </g>
    </g>
</svg>
